<svg id="Filled" height="512" viewBox="0 0 512 512" width="512" xmlns="http://www.w3.org/2000/svg"><path d="m256 112v144h-144v-48a96 96 0 0 0 96-96z" fill="#b1bd70"/><path d="m256 400v-144h144v48a96 96 0 0 0 -96 96z" fill="#f7b030"/><path d="m112 216a104.118 104.118 0 0 0 104-104 8 8 0 0 0 -16 0 88.1 88.1 0 0 1 -88 88 8 8 0 0 0 0 16z"/><path d="m400 296a104.118 104.118 0 0 0 -104 104 8 8 0 0 0 16 0 88.1 88.1 0 0 1 88-88 8 8 0 0 0 0-16z"/><path d="m491.578 248.845-32-16a8 8 0 0 0 -7.156 14.31l1.689.845h-46.111v-8a8 8 0 0 0 -16 0v8h-32v-8a8 8 0 0 0 -16 0v8h-32v-8a8 8 0 0 0 -16 0v8h-32v-32h8a8 8 0 0 0 0-16h-8v-32h8a8 8 0 0 0 0-16h-8v-32h8a8 8 0 0 0 0-16h-8v-46.111l.845 1.689a8 8 0 1 0 14.31-7.156l-16-32a8 8 0 0 0 -14.31 0l-16 32a8 8 0 0 0 14.31 7.156l.845-1.689v46.111h-8a8 8 0 0 0 0 16h8v32h-8a8 8 0 0 0 0 16h8v32h-8a8 8 0 0 0 0 16h8v32h-32v-8a8 8 0 0 0 -16 0v8h-32v-8a8 8 0 0 0 -16 0v8h-32v-8a8 8 0 0 0 -16 0v8h-46.111l1.689-.845a8 8 0 0 0 -7.156-14.31l-32 16a8 8 0 0 0 0 14.31l32 16a8 8 0 1 0 7.156-14.31l-1.689-.845h46.111v8a8 8 0 0 0 16 0v-8h32v8a8 8 0 0 0 16 0v-8h32v8a8 8 0 0 0 16 0v-8h32v32h-8a8 8 0 0 0 0 16h8v32h-8a8 8 0 0 0 0 16h8v32h-8a8 8 0 0 0 0 16h8v46.111l-.845-1.689a8 8 0 0 0 -14.31 7.156l16 32a8 8 0 0 0 14.31 0l16-32a8 8 0 1 0 -14.31-7.156l-.845 1.689v-46.111h8a8 8 0 0 0 0-16h-8v-32h8a8 8 0 0 0 0-16h-8v-32h8a8 8 0 0 0 0-16h-8v-32h32v8a8 8 0 0 0 16 0v-8h32v8a8 8 0 0 0 16 0v-8h32v8a8 8 0 0 0 16 0v-8h46.111l-1.689.845a8 8 0 1 0 7.156 14.31l32-16a8 8 0 0 0 0-14.31z"/></svg>