<?xml version="1.0" encoding="iso-8859-1"?>
<!-- Generator: Adobe Illustrator 21.0.0, SVG Export Plug-In . SVG Version: 6.00 Build 0)  -->
<svg xmlns="http://www.w3.org/2000/svg" xmlns:xlink="http://www.w3.org/1999/xlink" version="1.1" id="Capa_1" x="0px" y="0px" viewBox="0 0 80 80" style="enable-background:new 0 0 80 80;" xml:space="preserve" width="512" height="512">
<g>
	<g id="Scene_167_">
		<circle style="fill:#FFF0ED;" cx="40" cy="40" r="40"/>
		<ellipse style="fill:#45413C;fill-opacity:0.15;" cx="40" cy="71.73" rx="15.52" ry="1.73"/>
		<g>
			<path style="fill:#FF87AF;" d="M19.71,24.29c0.32,0.023,0.597-0.218,0.62-0.537c0-0.001,0-0.002,0-0.003     c0.46-6.43,9.78-13.13,14.5,9.38l-12.76,29c-0.138,0.289-0.016,0.635,0.273,0.773c0.077,0.037,0.161,0.056,0.247,0.057h7.16     c0.22,0.001,0.421-0.123,0.52-0.32l8.47-17c4.18,12.43,7,18,15.31,18c8.84,0,10.07-8.86,10.16-11.35     c0.012-0.32-0.237-0.59-0.557-0.602c-0.024-0.001-0.048,0-0.073,0.002l-1.91,0.17c-0.265,0.025-0.48,0.227-0.52,0.49     c-0.29,1.93-3.17,4-6.42,4c-8.46,0-13.82-44.85-26.84-44.85c-8.8,0-10.47,8.48-10.53,12c-0.006,0.309,0.231,0.569,0.54,0.59     L19.71,24.29z"/>
			<path style="fill:#45413C;" d="M54.05,64.14c-8.399,0-11.405-5.516-15.397-17.202l-7.935,15.925     c-0.185,0.369-0.554,0.598-0.965,0.598c-0.002,0-0.003,0-0.005,0H22.59c-0.159,0-0.319-0.037-0.463-0.106     c-0.259-0.123-0.455-0.341-0.551-0.613s-0.081-0.565,0.043-0.825l12.689-28.839c-2.942-13.886-7.235-15.122-8.963-15.004     c-2.469,0.167-4.328,3.09-4.516,5.714c0,0.007-0.001,0.013-0.001,0.02c-0.024,0.281-0.155,0.537-0.368,0.722     c-0.218,0.189-0.493,0.284-0.785,0.261c-0.006,0-0.013-0.001-0.02-0.001l-1.81-0.2c-0.554-0.037-0.996-0.52-0.985-1.096     C16.939,18.852,19.351,11,27.89,11c7.563,0,12.512,14.001,16.879,26.355c3.362,9.511,6.538,18.495,9.961,18.495     c3.035,0,5.677-1.921,5.926-3.574c0.075-0.492,0.473-0.867,0.968-0.913l1.912-0.17c0.021-0.002,0.115-0.005,0.136-0.004     c0.287,0.011,0.555,0.134,0.751,0.346s0.298,0.487,0.287,0.775C64.666,53.52,63.996,64.14,54.05,64.14z M38.74,45.14     c0.011,0,0.023,0,0.035,0.001c0.201,0.014,0.375,0.148,0.439,0.34C43.343,57.759,45.993,63.14,54.05,63.14     c9.009,0,9.62-9.755,9.66-10.867l-0.077-0.084l-1.919,0.17c-0.417,2.382-3.713,4.491-6.983,4.491     c-4.13,0-7.269-8.88-10.904-19.161C39.57,25.647,34.746,12,27.89,12c-9.558,0-10.01,10.331-10.03,11.508     c-0.001,0.044,0.032,0.08,0.074,0.083l1.817,0.201c0.026-0.01,0.042-0.01,0.053-0.02c0.002-0.037,0.018-0.09,0.036-0.14     c0.264-3.035,2.392-6.352,5.438-6.559c2.458-0.156,7.049,1.682,10.042,15.954c0.021,0.102,0.01,0.208-0.032,0.304l-12.76,29     c-0.025,0.054-0.009,0.102,0.031,0.121l7.192,0.008l8.542-17.043C38.377,45.246,38.552,45.14,38.74,45.14z"/>
		</g>
	</g>
</g>















</svg>
